<?xml version="1.0" encoding="UTF-8" standalone="no"?>
<svg
   xmlns:dc="http://purl.org/dc/elements/1.1/"
   xmlns:cc="http://creativecommons.org/ns#"
   xmlns:rdf="http://www.w3.org/1999/02/22-rdf-syntax-ns#"
   xmlns:svg="http://www.w3.org/2000/svg"
   xmlns="http://www.w3.org/2000/svg"
   viewBox="0 0 160.44 121.90667"
   height="121.90667"
   width="160.44"
   xml:space="preserve"
   id="svg2"
   version="1.1"><metadata
     id="metadata8"><rdf:RDF><cc:Work
         rdf:about=""><dc:format>image/svg+xml</dc:format><dc:type
           rdf:resource="http://purl.org/dc/dcmitype/StillImage" /><dc:title></dc:title></cc:Work></rdf:RDF></metadata><defs
     id="defs6" /><g
     transform="matrix(1.3333333,0,0,-1.3333333,0,121.90667)"
     id="g10"><g
       transform="scale(0.1)"
       id="g12"><path
         id="path14"
         style="fill:#022e4d;fill-opacity:1;fill-rule:nonzero;stroke:none"
         d="M 1193.29,32.1484 C 1193.29,19.9609 1183.33,10 1171.14,10 H 32.1445 C 19.9648,10 10,19.9609 10,32.1484 V 882.164 c 0,12.176 9.9648,22.145 22.1445,22.145 H 1171.14 c 12.19,0 22.15,-9.969 22.15,-22.145 V 32.1484" /><path
         id="path16"
         style="fill:none;stroke:#ffffff;stroke-width:20;stroke-linecap:butt;stroke-linejoin:miter;stroke-miterlimit:4;stroke-dasharray:none;stroke-opacity:1"
         d="M 1193.29,32.1484 C 1193.29,19.9609 1183.33,10 1171.14,10 H 32.1445 C 19.9648,10 10,19.9609 10,32.1484 V 882.164 c 0,12.176 9.9648,22.145 22.1445,22.145 H 1171.14 c 12.19,0 22.15,-9.969 22.15,-22.145 z" /><path
         id="path18"
         style="fill:#ffffff;fill-opacity:1;fill-rule:nonzero;stroke:none"
         d="m 1048.92,613.73 -42.47,103.196 -34.868,-77.844 v 6.711 l 36.918,93.484 44.46,-106.765 -4.04,-18.782" /><path
         id="path20"
         style="fill:#ffffff;fill-opacity:1;fill-rule:nonzero;stroke:none"
         d="m 780.215,507.773 36.777,6.543 c -7.156,2.618 -15.262,4.368 -23.523,4.981 0.027,0.012 0.039,0.012 0.078,0.019 -0.07,-0.007 -0.117,-0.007 -0.168,-0.019 -19.285,1.359 -39.395,-3.594 -50.645,-18.574 -0.476,-18.457 -4.082,-36.731 -2.644,-55.352 l 36.883,6.574 c -1.407,18.446 1.074,36.582 3.117,55.196 0.055,0.195 0.078,0.429 0.125,0.632" /><path
         id="path22"
         style="fill:#ffffff;fill-opacity:1;fill-rule:nonzero;stroke:none"
         d="m 674.855,509.484 36.766,6.551 c -7.187,2.637 -15.281,4.367 -23.516,4.973 0.02,0.008 0.032,0.008 0.071,0.039 -0.071,-0.012 -0.129,-0.031 -0.196,-0.039 -19.242,1.375 -39.359,-3.625 -50.636,-18.567 -0.481,-18.464 -4.063,-36.738 -2.664,-55.371 l 36.922,6.59 c -1.426,18.442 1.093,36.582 3.117,55.199 0.008,0.204 0.094,0.426 0.136,0.625" /><path
         id="path24"
         style="fill:#ffffff;fill-opacity:1;fill-rule:nonzero;stroke:none"
         d="m 570.859,508.723 36.786,6.531 c -7.196,2.637 -15.274,4.363 -23.551,4.961 0.047,0.019 0.086,0.019 0.086,0.058 -0.039,-0.039 -0.117,-0.039 -0.157,-0.058 -19.25,1.367 -39.406,-3.582 -50.671,-18.555 -0.414,-18.426 -4.036,-36.75 -2.629,-55.332 l 36.882,6.555 c -1.394,18.426 1.125,36.601 3.137,55.195 0.012,0.215 0.098,0.418 0.117,0.645" /><path
         id="path26"
         style="fill:#ffffff;fill-opacity:1;fill-rule:nonzero;stroke:none"
         d="m 463.176,508.723 36.765,6.531 c -7.148,2.637 -15.246,4.363 -23.503,4.961 0.015,0.019 0.015,0.019 0.066,0.058 -0.059,-0.039 -0.125,-0.039 -0.188,-0.058 -19.253,1.367 -39.382,-3.582 -50.64,-18.555 -0.449,-18.426 -4.067,-36.75 -2.641,-55.332 l 36.906,6.555 c -1.406,18.426 1.075,36.601 3.094,55.195 0.063,0.215 0.11,0.418 0.141,0.645" /><path
         id="path28"
         style="fill:#ffffff;fill-opacity:1;fill-rule:nonzero;stroke:none"
         d="m 357.668,507.063 36.758,6.542 c -7.168,2.637 -15.254,4.375 -23.535,4.961 0.039,0.028 0.078,0.055 0.105,0.055 -0.066,0 -0.137,-0.027 -0.203,-0.055 -19.25,1.375 -39.367,-3.593 -50.625,-18.546 -0.473,-18.446 -4.055,-36.747 -2.648,-55.36 l 36.882,6.57 c -1.406,18.458 1.118,36.575 3.149,55.196 0,0.195 0.054,0.422 0.117,0.637" /><path
         id="path30"
         style="fill:#ffffff;fill-opacity:1;fill-rule:nonzero;stroke:none"
         d="m 252.285,508.82 36.778,6.485 c -7.168,2.656 -15.274,4.402 -23.536,5.019 0.032,0 0.039,0 0.071,0.02 -0.039,-0.02 -0.129,-0.02 -0.168,-0.02 -19.278,1.328 -39.375,-3.633 -50.664,-18.586 -0.43,-18.445 -4.051,-36.738 -2.637,-55.34 l 36.902,6.571 c -1.414,18.418 1.098,36.582 3.117,55.148 0.04,0.25 0.086,0.449 0.137,0.703" /><path
         id="path32"
         style="fill:#ffffff;fill-opacity:1;fill-rule:nonzero;stroke:none"
         d="m 148.313,507.996 36.753,6.567 c -7.156,2.597 -15.242,4.363 -23.511,4.96 0.015,0.02 0.039,0.02 0.039,0.02 -0.024,0 -0.078,0 -0.168,-0.02 -19.238,1.356 -39.363,-3.613 -50.613,-18.554 -0.461,-18.469 -4.055,-36.739 -2.676,-55.391 l 36.914,6.582 c -1.43,18.457 1.094,36.57 3.14,55.176 0.039,0.254 0.063,0.437 0.122,0.66" /><path
         id="path34"
         style="fill:#ffffff;fill-opacity:1;fill-rule:nonzero;stroke:none"
         d="m 349.414,753.281 67.774,30.071 65.125,-35.43 0.746,-11.973 20.234,13.043 1.297,14.582 -62.063,35.176 -93.113,-45.469" /><path
         id="path36"
         style="fill:#ffffff;fill-opacity:1;fill-rule:nonzero;stroke:none"
         d="m 1044.01,589.797 c 0,-23.184 0,-46.359 0,-69.484 0,-4.266 -3.5,-8.036 -8.05,-8.036 -4.54,0 -8.06,3.77 -8.06,8.036 0,23.125 0,46.3 0,69.484 0,4.488 3.52,8.066 8.06,8.066 4.55,0 8.05,-3.578 8.05,-8.066 v 0" /><path
         id="path38"
         style="fill:#ffffff;fill-opacity:1;fill-rule:nonzero;stroke:none"
         d="m 1015.81,590.117 c 0,-23.152 0,-46.289 0,-69.48 0,-4.25 -3.54,-8.086 -8.08,-8.086 -4.52,0 -8.062,3.836 -8.062,8.086 0,23.191 0,46.328 0,69.48 0,4.582 3.542,8.059 8.062,8.059 4.54,0 8.08,-3.477 8.08,-8.059 v 0" /><path
         id="path40"
         style="fill:#ffffff;fill-opacity:1;fill-rule:nonzero;stroke:none"
         d="m 986.289,589.953 c 0,-23.144 0,-46.308 0,-69.473 0,-4.269 -3.547,-8.07 -8.105,-8.07 -4.5,0 -8.008,3.801 -8.008,8.07 0,23.165 0,46.329 0,69.473 0,4.559 3.508,8.047 8.008,8.047 4.558,0 8.105,-3.488 8.105,-8.047 v 0" /><path
         id="path42"
         style="fill:#ffffff;fill-opacity:1;fill-rule:nonzero;stroke:none"
         d="m 1073.08,286.828 0.12,322.051 -8.51,26.836 -8.54,-26.836 0.1,-321.965 16.83,-0.086" /><path
         id="path44"
         style="fill:#ffffff;fill-opacity:1;fill-rule:nonzero;stroke:none"
         d="m 958.723,286.836 v 322.043 l -5.395,25.516 -5.367,-25.516 V 286.828 l 10.762,0.008" /><path
         id="path46"
         style="fill:#ffffff;fill-opacity:1;fill-rule:nonzero;stroke:none"
         d="m 1048.92,613.73 -42.47,103.196 -34.868,-77.844 v 6.711 l 36.918,93.484 44.46,-106.765 -4.04,-18.782" /><path
         id="path48"
         style="fill:#ffffff;fill-opacity:1;fill-rule:nonzero;stroke:none"
         d="m 130.039,646.867 c 0,0 118.231,70.34 229.121,79.649 0,0 157.461,28.496 316.36,-52.305 0,0 91.835,-42.5 149.187,-108.457 H 879.98 V 267.316 l -21.417,-0.109 v 279.191 h -50.45 c 0,0 -105.41,108.844 -254.871,149.207 -214.812,58.008 -416.086,-44.98 -423.203,-48.738" /><path
         id="path50"
         style="fill:#ffffff;fill-opacity:1;fill-rule:nonzero;stroke:none"
         d="m 142.922,124.043 c 6.598,0 19.422,-0.84 19.422,15.781 0,14.934 -12.403,16.914 -33.692,15.352 v -31.133 z m -14.27,47.785 c 16.211,0 31.575,-1.855 31.575,13.262 0,15.633 -16.047,13.933 -31.575,13.933 z M 106.68,106.711 v 109.656 h 31.55 c 35.547,0 44.543,-12.414 44.543,-30.176 0,-10.293 -4.921,-17.753 -13.796,-22.675 10,-4.813 15.933,-14.246 15.933,-25.274 0,-18.875 -15.359,-31.531 -35.39,-31.531 h -42.84" /><path
         id="path52"
         style="fill:#ffffff;fill-opacity:1;fill-rule:nonzero;stroke:none"
         d="m 260.371,197.754 h -46.223 v -26.211 h 38.332 v -18.621 h -38.332 v -27.629 h 48.926 v -18.582 h -70.918 v 109.656 h 68.215 v -18.613" /><path
         id="path54"
         style="fill:#ffffff;fill-opacity:1;fill-rule:nonzero;stroke:none"
         d="m 302.598,170.84 c 9.59,0 24.277,-0.547 24.277,13.098 0,15.085 -14.836,13.816 -25.691,13.816 h -8.157 V 170.84 Z m 11.718,45.527 c 25.254,0 35.086,-18.047 35.086,-31.972 0,-12 -7.449,-23.145 -18.621,-27.657 l 21.875,-50.027 h -23.125 l -19.734,45.527 h -16.77 v -45.527 h -21.98 v 109.656 h 43.269" /><path
         id="path56"
         style="fill:#ffffff;fill-opacity:1;fill-rule:nonzero;stroke:none"
         d="m 416.555,216.367 h 25.386 l -32.703,-42.871 36.785,-66.785 h -25.085 l -26.512,47.48 -11.399,-14.511 v -32.969 h -22.011 v 109.656 h 22.011 v -45.82 l 33.528,45.82" /><path
         id="path58"
         style="fill:#ffffff;fill-opacity:1;fill-rule:nonzero;stroke:none"
         d="m 520.129,197.754 h -46.274 v -26.211 h 38.379 v -18.621 h -38.379 v -27.629 h 48.918 v -18.582 h -70.918 v 109.656 h 68.274 v -18.613" /><path
         id="path60"
         style="fill:#ffffff;fill-opacity:1;fill-rule:nonzero;stroke:none"
         d="m 555.527,125.293 h 45.684 v -18.582 h -67.637 v 109.656 h 21.953 v -91.074" /><path
         id="path62"
         style="fill:#ffffff;fill-opacity:1;fill-rule:nonzero;stroke:none"
         d="m 680.227,197.754 h -46.25 v -26.211 h 38.367 v -18.621 h -38.367 v -27.629 h 48.933 v -18.582 h -70.898 v 109.656 h 68.215 v -18.613" /><path
         id="path64"
         style="fill:#ffffff;fill-opacity:1;fill-rule:nonzero;stroke:none"
         d="m 745.691,150.969 v -44.258 h -21.968 v 44.258 l -35.942,65.398 h 23.391 l 23.683,-48.172 24.52,48.172 h 22.676 l -36.36,-65.398" /><path
         id="path66"
         style="fill:#ffffff;fill-opacity:1;fill-rule:nonzero;stroke:none"
         d="m 854.258,125.293 h 45.683 v -18.582 h -67.644 v 109.656 h 21.961 v -91.074" /><path
         id="path68"
         style="fill:#ffffff;fill-opacity:1;fill-rule:nonzero;stroke:none"
         d="m 953.723,197.48 h -0.559 l -11.57,-45.945 h 23.699 z m 45.507,-90.769 h -22.382 l -7.192,27.48 h -32.429 l -7.2,-27.48 H 907.59 l 30.75,109.656 h 29.621 L 999.23,106.711" /><path
         id="path70"
         style="fill:#ffffff;fill-opacity:1;fill-rule:nonzero;stroke:none"
         d="m 1044.7,124.043 c 6.61,0 19.45,-0.84 19.45,15.781 0,14.934 -12.39,16.914 -33.7,15.352 v -31.133 z m -14.25,47.785 c 16.22,0 31.58,-1.855 31.58,13.262 0,15.633 -16.07,13.933 -31.58,13.933 z m -21.98,-65.117 v 109.656 h 31.6 c 35.48,0 44.56,-12.414 44.56,-30.176 0,-10.293 -4.98,-17.753 -13.85,-22.675 10.04,-4.813 15.9,-14.246 15.9,-25.274 0,-18.875 -15.35,-31.531 -35.37,-31.531 h -42.84" /></g></g></svg>