<?xml version="1.0" encoding="UTF-8" standalone="no"?>
<svg
   xmlns:dc="http://purl.org/dc/elements/1.1/"
   xmlns:cc="http://creativecommons.org/ns#"
   xmlns:rdf="http://www.w3.org/1999/02/22-rdf-syntax-ns#"
   xmlns:svg="http://www.w3.org/2000/svg"
   xmlns="http://www.w3.org/2000/svg"
   viewBox="0 0 261.33334 182"
   height="182"
   width="261.33334"
   xml:space="preserve"
   id="svg2"
   version="1.1"><metadata
     id="metadata8"><rdf:RDF><cc:Work
         rdf:about=""><dc:format>image/svg+xml</dc:format><dc:type
           rdf:resource="http://purl.org/dc/dcmitype/StillImage" /><dc:title></dc:title></cc:Work></rdf:RDF></metadata><defs
     id="defs6" /><g
     transform="matrix(1.3333333,0,0,-1.3333333,0,182)"
     id="g10"><g
       transform="scale(0.1)"
       id="g12"><path
         id="path14"
         style="fill:#4c4807;fill-opacity:1;fill-rule:nonzero;stroke:none"
         d="M 1960,545.031 H 0 V 1365.03 H 1960 V 545.031" /><path
         id="path16"
         style="fill:#a7bf0f;fill-opacity:1;fill-rule:nonzero;stroke:none"
         d="M 1960,0 H 0 V 545.031 H 1960 V 0" /><path
         id="path18"
         style="fill:#ffffff;fill-opacity:1;fill-rule:nonzero;stroke:none"
         d="m 132.566,385.293 -17.808,10.82 c -11.172,6.817 -19.1213,13.535 -23.8478,20.137 -4.7305,6.602 -7.0899,14.199 -7.0899,22.793 0,12.891 4.4688,23.359 13.4141,31.406 8.9496,8.047 20.5706,12.071 34.8676,12.071 13.668,0 26.211,-3.836 37.617,-11.512 v -26.602 c -11.797,11.348 -24.492,17.02 -38.086,17.02 -7.656,0 -13.945,-1.778 -18.867,-5.313 -4.922,-3.535 -7.383,-8.066 -7.383,-13.593 0,-4.903 1.808,-9.493 5.437,-13.778 3.621,-4.277 9.453,-8.781 17.493,-13.488 l 17.898,-10.586 c 19.965,-11.934 29.949,-27.109 29.949,-45.547 0,-13.121 -4.39,-23.789 -13.18,-31.992 -8.792,-8.199 -20.214,-12.309 -34.281,-12.309 -16.172,0 -30.8982,4.981 -44.1756,14.918 V 359.5 c 12.6524,-16.031 27.3006,-24.051 43.9456,-24.051 7.344,0 13.457,2.039 18.34,6.129 4.879,4.082 7.324,9.203 7.324,15.352 0,9.965 -7.192,19.418 -21.567,28.363" /><path
         id="path20"
         style="fill:#ffffff;fill-opacity:1;fill-rule:nonzero;stroke:none"
         d="m 344.238,354.672 v -25.781 c -17.187,-9.379 -37.031,-14.071 -59.531,-14.071 -18.281,0 -33.789,3.68 -46.523,11.02 -12.735,7.34 -22.813,17.461 -30.235,30.351 -7.422,12.891 -11.133,26.836 -11.133,41.836 0,23.828 8.497,43.868 25.489,60.118 16.992,16.25 37.949,24.375 62.871,24.375 17.187,0 36.289,-4.493 57.304,-13.477 v -25.195 c -19.14,10.937 -37.851,16.406 -56.132,16.406 -18.75,0 -34.317,-5.918 -46.7,-17.754 -12.382,-11.836 -18.574,-26.66 -18.574,-44.473 0,-17.968 6.094,-32.734 18.281,-44.297 12.188,-11.558 27.774,-17.339 46.758,-17.339 19.844,0 39.219,6.089 58.125,18.281" /><path
         id="path22"
         style="fill:#ffffff;fill-opacity:1;fill-rule:nonzero;stroke:none"
         d="m 374.504,480.41 h 23.434 V 316.699 H 374.504 V 480.41" /><path
         id="path24"
         style="fill:#ffffff;fill-opacity:1;fill-rule:nonzero;stroke:none"
         d="m 435.465,480.41 h 92.812 v -20.859 h -69.375 v -49.922 h 67.032 v -20.977 h -67.032 v -50.863 h 71.602 V 316.93 h -95.039 v 163.48" /><path
         id="path26"
         style="fill:#ffffff;fill-opacity:1;fill-rule:nonzero;stroke:none"
         d="m 686.742,480.41 h 22.266 V 316.699 H 688.852 L 579.398,442.785 V 316.699 H 557.367 V 480.41 h 18.985 L 686.742,353.262 V 480.41" /><path
         id="path28"
         style="fill:#ffffff;fill-opacity:1;fill-rule:nonzero;stroke:none"
         d="m 881.543,354.672 v -25.781 c -17.188,-9.379 -37.031,-14.071 -59.531,-14.071 -18.282,0 -33.789,3.68 -46.524,11.02 -12.734,7.34 -22.812,17.461 -30.234,30.351 -7.422,12.891 -11.133,26.836 -11.133,41.836 0,23.828 8.496,43.868 25.488,60.118 16.993,16.25 37.95,24.375 62.871,24.375 17.188,0 36.29,-4.493 57.305,-13.477 v -25.195 c -19.14,10.937 -37.851,16.406 -56.133,16.406 -18.75,0 -34.316,-5.918 -46.699,-17.754 -12.383,-11.836 -18.574,-26.66 -18.574,-44.473 0,-17.968 6.094,-32.734 18.281,-44.297 12.188,-11.558 27.774,-17.339 46.758,-17.339 19.844,0 39.219,6.089 58.125,18.281" /><path
         id="path30"
         style="fill:#ffffff;fill-opacity:1;fill-rule:nonzero;stroke:none"
         d="m 911.57,480.41 h 92.81 v -20.859 h -69.368 v -49.922 h 67.028 v -20.977 h -67.028 v -50.863 h 71.598 V 316.93 h -95.04 v 163.48" /><path
         id="path32"
         style="fill:#ffffff;fill-opacity:1;fill-rule:nonzero;stroke:none"
         d="m 1181.91,460.488 c -18.73,0 -34.12,-5.859 -46.18,-17.578 -12.06,-11.719 -18.09,-26.68 -18.09,-44.883 0,-17.656 6.05,-32.343 18.15,-44.058 12.1,-11.719 27.24,-17.578 45.42,-17.578 18.26,0 33.51,5.968 45.72,17.929 12.22,11.95 18.32,26.832 18.32,44.645 0,17.344 -6.1,31.933 -18.32,43.769 -12.21,11.836 -27.22,17.754 -45.02,17.754 z m -0.93,22.266 c 25.29,0 46.36,-8.008 63.18,-24.024 16.83,-16.015 25.23,-36.093 25.23,-60.234 0,-24.141 -8.48,-44.117 -25.46,-59.937 -16.98,-15.821 -38.39,-23.739 -64.24,-23.739 -24.67,0 -45.22,7.918 -61.65,23.739 -16.44,15.82 -24.66,35.64 -24.66,59.468 0,24.453 8.28,44.688 24.83,60.703 16.56,16.016 37.47,24.024 62.77,24.024" /><path
         id="path34"
         style="fill:#ffffff;fill-opacity:1;fill-rule:nonzero;stroke:none"
         d="m 1294.86,480.41 h 87.31 v -20.859 h -63.87 v -45.703 h 63.87 v -20.86 h -63.87 v -76.289 h -23.44 V 480.41" /><path
         id="path36"
         style="fill:#ffffff;fill-opacity:1;fill-rule:nonzero;stroke:none"
         d="m 1437.18,480.645 h 136.76 v -20.86 h -57.07 V 316.699 h -23.56 v 143.086 h -56.13 v 20.86" /><path
         id="path38"
         style="fill:#ffffff;fill-opacity:1;fill-rule:nonzero;stroke:none"
         d="m 1712.71,480.41 h 23.44 V 316.699 h -23.44 v 71.25 h -91.99 v -71.25 h -23.43 V 480.41 h 23.43 v -70.781 h 91.99 v 70.781" /><path
         id="path40"
         style="fill:#ffffff;fill-opacity:1;fill-rule:nonzero;stroke:none"
         d="m 1773.45,480.41 h 92.81 v -20.859 h -69.38 v -49.922 h 67.04 v -20.977 h -67.04 v -50.863 h 71.61 V 316.93 h -95.04 v 163.48" /><path
         id="path42"
         style="fill:#ffffff;fill-opacity:1;fill-rule:nonzero;stroke:none"
         d="m 96.168,254.051 h 100.547 v -22.59 h -75.156 v -54.09 h 72.617 V 154.648 H 121.559 V 99.5508 h 77.566 V 76.9492 H 96.168 V 254.051" /><path
         id="path44"
         style="fill:#ffffff;fill-opacity:1;fill-rule:nonzero;stroke:none"
         d="m 367.086,254.051 h 24.121 V 76.6992 H 369.371 L 250.797,213.289 V 76.6992 H 226.93 V 254.051 h 20.566 l 119.59,-137.742 v 137.742" /><path
         id="path46"
         style="fill:#ffffff;fill-opacity:1;fill-rule:nonzero;stroke:none"
         d="m 541.5,254.051 h 25.281 L 491.797,75.9414 h -5.75 L 409.613,254.051 h 25.563 l 53.34,-124.539 52.984,124.539" /><path
         id="path48"
         style="fill:#ffffff;fill-opacity:1;fill-rule:nonzero;stroke:none"
         d="m 586.461,254.051 h 25.391 V 76.6992 H 586.461 V 254.051" /><path
         id="path50"
         style="fill:#ffffff;fill-opacity:1;fill-rule:nonzero;stroke:none"
         d="m 684.977,232.469 h -7.618 v -55.981 h 9.649 c 12.863,0 21.687,1.09 26.469,3.301 4.781,2.199 8.503,5.52 11.171,9.961 2.665,4.449 4,9.512 4,15.172 0,5.59 -1.48,10.648 -4.445,15.18 -2.965,4.519 -7.129,7.707 -12.504,9.578 -5.375,1.859 -14.281,2.789 -26.722,2.789 z M 651.969,76.6992 V 254.051 h 44.433 c 17.946,0 32.184,-4.442 42.719,-13.332 10.535,-8.879 15.805,-20.899 15.805,-36.047 0,-10.332 -2.582,-19.262 -7.742,-26.793 -5.164,-7.527 -12.571,-13.149 -22.219,-16.879 5.672,-3.73 11.219,-8.809 16.633,-15.238 5.414,-6.422 13.031,-17.641 22.851,-33.641 6.176,-10.07 11.125,-17.6522 14.852,-22.7226 l 9.394,-12.6992 H 758.48 l -7.734,11.6797 c -0.254,0.4297 -0.762,1.1524 -1.523,2.1719 l -4.942,6.9805 -7.859,12.9567 -8.496,13.852 c -5.238,7.281 -10.043,13.07 -14.406,17.379 -4.364,4.312 -8.305,7.422 -11.821,9.32 -3.519,1.891 -9.429,2.852 -17.73,2.852 h -6.61 V 76.6992 h -25.39" /><path
         id="path52"
         style="fill:#ffffff;fill-opacity:1;fill-rule:nonzero;stroke:none"
         d="m 880.676,232.469 c -20.293,0 -36.977,-6.348 -50.039,-19.039 -13.063,-12.7 -19.598,-28.899 -19.598,-48.621 0,-19.129 6.555,-35.039 19.66,-47.739 13.106,-12.691 29.512,-19.0387 49.211,-19.0387 19.785,0 36.297,6.4687 49.531,19.4177 13.235,12.949 19.852,29.071 19.852,48.371 0,18.789 -6.617,34.59 -19.852,47.418 -13.234,12.821 -29.492,19.231 -48.765,19.231 z m -1.02,24.121 c 27.407,0 50.223,-8.68 68.449,-26.02 18.223,-17.351 27.344,-39.101 27.344,-65.261 0,-26.149 -9.199,-47.789 -27.597,-64.938 -18.399,-17.1327 -41.59,-25.6991 -69.59,-25.6991 -26.723,0 -48.992,8.5664 -66.797,25.6991 -17.805,17.149 -26.703,38.617 -26.703,64.438 0,26.48 8.965,48.41 26.894,65.761 17.93,17.34 40.602,26.02 68,26.02" /><path
         id="path54"
         style="fill:#ffffff;fill-opacity:1;fill-rule:nonzero;stroke:none"
         d="m 1147.6,254.051 h 24.12 V 76.6992 h -21.84 L 1031.31,213.289 V 76.6992 h -23.87 V 254.051 h 20.57 L 1147.6,116.309 v 137.742" /><path
         id="path56"
         style="fill:#ffffff;fill-opacity:1;fill-rule:nonzero;stroke:none"
         d="m 1350.72,254.051 h 23.73 V 76.6992 h -25.5 V 214.699 l -54.54,-68.558 h -4.69 l -55.17,68.558 V 76.6992 h -25.39 V 254.051 h 24.04 l 58.93,-72.84 58.59,72.84" /><path
         id="path58"
         style="fill:#ffffff;fill-opacity:1;fill-rule:nonzero;stroke:none"
         d="m 1402.27,254.051 h 100.54 v -22.59 h -75.15 v -54.09 h 72.61 v -22.723 h -72.61 V 99.5508 h 77.57 V 76.9492 H 1402.27 V 254.051" /><path
         id="path60"
         style="fill:#ffffff;fill-opacity:1;fill-rule:nonzero;stroke:none"
         d="m 1673.18,254.051 h 24.12 V 76.6992 h -21.83 L 1556.89,213.289 V 76.6992 h -23.86 V 254.051 h 20.56 l 119.59,-137.742 v 137.742" /><path
         id="path62"
         style="fill:#ffffff;fill-opacity:1;fill-rule:nonzero;stroke:none"
         d="m 1720.16,254.309 h 148.16 v -22.598 h -61.84 V 76.6992 h -25.5 V 231.711 h -60.82 v 22.598" /><path
         id="path64"
         style="fill:#ffffff;fill-opacity:1;fill-rule:nonzero;stroke:none"
         d="M 583.637,704.66 H 518.809 L 166.871,1109.85 V 704.66 H 95.8672 v 526.36 h 60.1958 l 356.57,-407.504 v 407.504 h 71.004 V 704.66" /><path
         id="path66"
         style="fill:#ffffff;fill-opacity:1;fill-rule:nonzero;stroke:none"
         d="M 951.832,1163.1 H 728.785 V 1004.11 H 944.109 V 936.191 H 728.785 V 772.578 H 958.773 V 704.66 H 653.148 v 526.36 h 298.684 v -67.92" /><path
         id="path68"
         style="fill:#ffffff;fill-opacity:1;fill-rule:nonzero;stroke:none"
         d="m 1100.82,1001.03 h 48.62 c 81.04,0 104.19,41.68 103.42,85.66 -0.77,49.4 -30.1,79.5 -103.42,79.5 h -48.62 z m 57.11,229.99 c 106.5,0 172.89,-56.34 172.89,-147.41 0,-60.97 -31.65,-106.508 -87.99,-128.891 47.85,-31.641 77.18,-80.266 117.31,-145.871 22.38,-36.27 35.5,-54.024 71.77,-104.188 h -90.29 l -69.46,108.047 c -69.46,108.055 -101.11,120.398 -139.7,120.398 h -31.64 V 704.66 h -75.63 v 526.36 h 132.74" /><path
         id="path70"
         style="fill:#ffffff;fill-opacity:1;fill-rule:nonzero;stroke:none"
         d="m 1861.05,1113.71 c -64.82,37.81 -120.39,54.8 -181.36,54.8 -120.39,0 -209.92,-85.68 -209.92,-201.44 0,-118.086 86.43,-199.89 213,-199.89 59.44,0 124.26,20.828 183.69,59.422 v -82.579 c -51.71,-27.019 -108.04,-46.308 -190.63,-46.308 -197.58,0 -284.01,152.043 -284.01,262.402 0,160.543 121.17,277.843 288.64,277.843 54.03,0 108.82,-13.12 180.59,-43.21 v -81.04" /></g></g></svg>